<svg xmlns="http://www.w3.org/2000/svg" viewBox="0 0 380 125" fill="none" class="temple-skyline-svg">
  <!-- Soft Glowing Morning Sun / Aura -->
  <circle cx="295" cy="50" r="42" fill="#FFE4E6" opacity="0.75"/>

  <!-- Distant Background Terrain Waves -->
  <path d="M-20 108 C60 98, 140 106, 220 100 C280 95, 340 102, 400 96" stroke="#FECACA" stroke-width="1.2" fill="none" opacity="0.6"/>
  <path d="M30 114 C120 104, 200 110, 290 104 C340 100, 370 103, 400 100" stroke="#FCA5A5" stroke-width="0.8" fill="none" opacity="0.4"/>

  <!-- 1. Far-Left Shikhara -->
  <path d="M178 100 C180 80, 185 64, 190 54 C195 64, 200 80, 202 100 Z" fill="#FECDD3" opacity="0.65" stroke="#FDA4AF" stroke-width="1"/>
  <line x1="190" y1="54" x2="190" y2="48" stroke="#E11D48" stroke-width="1.2"/>
  <path d="M190 48 L197 50.5 L190 53 Z" fill="#E11D48"/>

  <!-- 2. Mid-Left Shikhara -->
  <path d="M198 100 C202 75, 208 55, 214 42 C220 55, 226 75, 230 100 Z" fill="#FECDD3" opacity="0.75" stroke="#FB7185" stroke-width="1.2"/>
  <line x1="214" y1="42" x2="214" y2="35" stroke="#E11D48" stroke-width="1.2"/>
  <path d="M214 35 L222 37.5 L214 40 Z" fill="#E11D48"/>

  <!-- 3. Left Foreground Shikhara -->
  <path d="M218 100 C223 68, 232 40, 240 24 C248 40, 257 68, 262 100 Z" fill="#FDE8E8" opacity="0.85" stroke="#F87171" stroke-width="1.4"/>
  <line x1="240" y1="24" x2="240" y2="16" stroke="#DC2626" stroke-width="1.4"/>
  <path d="M240 16 L250 19 L240 22 Z" fill="#DC2626"/>
  <path d="M229 65 Q240 58 251 65" stroke="#F87171" stroke-width="1" fill="none"/>
  <path d="M233 46 Q240 41 247 46" stroke="#F87171" stroke-width="1" fill="none"/>

  <!-- 4. Main Tallest Grand Central Shikhara -->
  <path d="M248 100 C254 60, 268 25, 278 8 C280 6, 282 6, 284 8 C294 25, 308 60, 314 100 Z" fill="#FFF1F2" opacity="0.9" stroke="#F87171" stroke-width="1.6"/>
  <!-- Central Spire Flag & Finial -->
  <line x1="281" y1="8" x2="281" y2="0" stroke="#DC2626" stroke-width="1.6"/>
  <circle cx="281" cy="8" r="1.5" fill="#DC2626"/>
  <!-- Fluttering Red Flag -->
  <path d="M281 0 L297 4 L281 8 Z" fill="#DC2626"/>
  <!-- Architectural Shikhara Ridges -->
  <path d="M262 68 Q281 58 300 68" stroke="#FCA5A5" stroke-width="1.2" fill="none"/>
  <path d="M267 48 Q281 40 295 48" stroke="#FCA5A5" stroke-width="1.2" fill="none"/>
  <path d="M272 30 Q281 24 290 30" stroke="#FCA5A5" stroke-width="1.1" fill="none"/>

  <!-- 5. Right Foreground Shikhara -->
  <path d="M300 100 C306 72, 314 46, 322 32 C330 46, 338 72, 344 100 Z" fill="#FDE8E8" opacity="0.85" stroke="#F87171" stroke-width="1.4"/>
  <line x1="322" y1="32" x2="322" y2="24" stroke="#DC2626" stroke-width="1.3"/>
  <path d="M322 24 L331 27 L322 30 Z" fill="#DC2626"/>
  <path d="M310 68 Q322 62 334 68" stroke="#F87171" stroke-width="1" fill="none"/>
  <path d="M314 50 Q322 45 330 50" stroke="#F87171" stroke-width="1" fill="none"/>

  <!-- 6. Far-Right Shikhara & Dome -->
  <path d="M336 100 C340 80, 347 62, 354 52 C361 62, 368 80, 372 100 Z" fill="#FECDD3" opacity="0.75" stroke="#FB7185" stroke-width="1.2"/>
  <line x1="354" y1="52" x2="354" y2="46" stroke="#E11D48" stroke-width="1.2"/>
  <path d="M354 46 L361 48.5 L354 51 Z" fill="#E11D48"/>

  <!-- Soft Base Ground Line -->
  <line x1="160" y1="100" x2="380" y2="100" stroke="#FCA5A5" stroke-width="1.5" stroke-linecap="round"/>
</svg>
